<?xml version="1.0" standalone="no"?>
<!DOCTYPE svg PUBLIC "-//W3C//DTD SVG 20010904//EN"
 "http://www.w3.org/TR/2001/REC-SVG-20010904/DTD/svg10.dtd">
<svg version="1.0" xmlns="http://www.w3.org/2000/svg"
 width="20.000000pt" height="20.000000pt" viewBox="0 0 20.000000 20.000000"
 preserveAspectRatio="xMidYMid meet">

<g transform="translate(0.000000,20.000000) scale(0.100000,-0.100000)"
fill="#000000" stroke="none">
<path d="M83 193 c9 -2 25 -2 35 0 9 3 1 5 -18 5 -19 0 -27 -2 -17 -5z"/>
<path d="M42 183 c-7 -2 -17 -14 -23 -26 -9 -19 -8 -20 3 -7 8 8 20 21 28 28
15 13 13 14 -8 5z"/>
<path d="M150 177 c8 -7 21 -19 29 -27 11 -13 12 -12 3 6 -7 12 -19 24 -29 28
-16 5 -16 4 -3 -7z"/>
<path d="M41 104 c2 -45 2 -46 8 -14 l6 35 20 -26 c11 -14 26 -24 33 -21 7 2
22 -4 33 -14 19 -17 19 -16 17 37 -1 36 -3 43 -5 22 -5 -38 -16 -42 -36 -12
-10 14 -17 17 -22 9 -5 -8 -15 -4 -31 11 l-24 22 1 -49z"/>
<path d="M2 100 c0 -19 2 -27 5 -17 2 9 2 25 0 35 -3 9 -5 1 -5 -18z"/>
<path d="M192 100 c0 -19 2 -27 5 -17 2 9 2 25 0 35 -3 9 -5 1 -5 -18z"/>
<path d="M16 47 c4 -10 16 -22 28 -29 18 -9 19 -8 6 3 -8 8 -20 21 -27 29 -11
13 -12 13 -7 -3z"/>
<path d="M160 33 c-22 -23 -23 -25 -4 -15 12 6 24 18 28 27 7 20 5 19 -24 -12z"/>
<path d="M83 3 c9 -2 25 -2 35 0 9 3 1 5 -18 5 -19 0 -27 -2 -17 -5z"/>
</g>
</svg>
